<svg width="40" height="40" viewBox="0 0 40 40" fill="none" xmlns="http://www.w3.org/2000/svg">
<g clip-path="url(#clip0_30_256)">
<path d="M40.0781 17.5781C40.0781 19.2204 40.0781 20.8626 40.0481 22.5241C39.9863 22.6091 39.9357 22.6723 39.9258 22.7413C39.8661 23.1588 39.8464 23.5844 39.7569 23.995C39.3712 25.7643 38.8445 27.4957 37.971 29.0851C37.3543 30.2073 36.6348 31.2779 35.9007 32.3293C34.8588 33.8214 33.5204 35.043 32.0822 36.1356C30.9495 36.9961 29.7154 37.7078 28.4096 38.3008C26.5985 39.1231 24.7238 39.6853 22.7508 39.9282C22.688 39.9359 22.6355 40.0263 22.5781 40.0781C20.9359 40.0781 19.2936 40.0781 17.6321 40.0481C17.2197 39.9343 16.8293 39.8321 16.4327 39.7699C14.6081 39.4841 12.8844 38.8826 11.238 38.0679C9.67808 37.2959 8.23664 36.3421 6.92553 35.1826C5.79885 34.1863 4.78737 33.0939 3.8894 31.8934C2.95538 30.6447 2.18422 29.2928 1.59293 27.8563C0.914327 26.2077 0.383589 24.5063 0.226719 22.7118C0.222478 22.6633 0.129645 22.6225 0.078125 22.5781C0.0781252 20.9359 0.0781252 19.2936 0.108589 17.6317C0.196549 17.3434 0.269282 17.0771 0.309092 16.8059C0.586504 14.9162 1.17697 13.1216 2.00355 11.4089C2.61887 10.134 3.36979 8.9402 4.23908 7.8126C5.35013 6.37139 6.63659 5.11284 8.07565 4.02175C9.25158 3.13015 10.5288 2.38739 11.8885 1.78573C13.6572 1.00309 15.4855 0.462126 17.4055 0.228076C17.4682 0.220435 17.5208 0.129977 17.5781 0.078125C19.2204 0.0781254 20.8626 0.0781254 22.5237 0.108045C22.8892 0.19698 23.2377 0.246307 23.582 0.316631C25.4186 0.691759 27.2076 1.2221 28.8856 2.06801C30.1024 2.68139 31.2558 3.39684 32.3399 4.23588C33.7788 5.3495 35.0465 6.62982 36.133 8.07283C36.9878 9.20815 37.7098 10.4363 38.3003 11.7443C39.119 13.5578 39.6858 15.4319 39.9282 17.406C39.9359 17.4686 40.0263 17.521 40.0781 17.5781ZM30.6254 15.3519C30.8553 15.1217 31.0994 14.9039 31.3124 14.659C31.9184 13.9626 31.9964 13.0766 31.5304 12.3874C30.7315 11.2057 29.376 11.0508 28.364 12.0639C24.6759 15.756 20.9847 19.445 17.2943 23.1347C17.1864 23.2426 17.0734 23.3454 16.9658 23.4478C16.2848 22.8339 15.6193 22.2446 14.9657 21.6422C14.148 20.8885 13.3479 20.1157 12.5251 19.3679C12.0894 18.972 11.656 18.5559 11.16 18.2482C10.4188 17.7883 9.82333 17.8783 9.1257 18.3515C8.49929 18.7764 8.23206 19.6737 8.40485 20.3311C8.55623 20.907 8.91512 21.2958 9.35266 21.6707C10.2227 22.4162 11.0584 23.202 11.9042 23.9755C13.1703 25.1334 14.4428 26.2845 15.6934 27.4588C16.5142 28.2294 17.6369 28.2506 18.436 27.4623C20.4993 25.4271 22.5655 23.3949 24.6215 21.3523C26.6157 19.3711 28.5985 17.3785 30.6254 15.3519Z" fill="#1B74E4"/>
</g>
<defs>
<clipPath id="clip0_30_256">
<rect width="40" height="40" fill="white"/>
</clipPath>
</defs>
</svg>
