<svg width="40" height="40" viewBox="0 0 40 40" fill="none" xmlns="http://www.w3.org/2000/svg">
<g clip-path="url(#clip0_27_166)">
<path d="M0.078125 27.8907C0.0781248 25.9099 0.0781248 23.9291 0.108731 21.9282C0.196918 21.6263 0.252944 21.3442 0.312343 21.0628C0.593162 19.7323 0.820092 18.3875 1.17019 17.0755C1.60744 15.437 2.27218 13.8798 3.10044 12.3931C3.89694 10.9633 4.79459 9.62812 6.07201 8.56501C7.88304 7.0578 9.95901 6.53849 12.244 6.89266C13.8571 7.14268 15.3574 7.754 16.7027 8.69819C17.5251 9.27537 18.4142 9.58654 19.4301 9.53649C20.0143 9.50772 20.601 9.53403 21.1866 9.53055C21.8553 9.52658 22.4775 9.32135 23.0211 8.95944C24.3795 8.05515 25.8064 7.32704 27.418 6.98998C28.6301 6.73646 29.835 6.70749 31.0414 7.00738C32.826 7.45099 34.228 8.46401 35.3857 9.86995C36.7913 11.5769 37.7408 13.5313 38.5071 15.5792C39.246 17.5541 39.7252 19.5974 39.9284 21.7013C39.9344 21.7634 40.0263 21.8173 40.0781 21.875C40.0781 23.8558 40.0781 25.8366 40.0475 27.8375C39.9855 27.9235 39.9323 27.9875 39.926 28.0558C39.8296 29.1004 39.6645 30.1318 39.2959 31.1185C38.8015 32.4418 37.6963 33.3415 36.1837 33.3695C35.1568 33.3885 34.3666 32.8932 33.6181 32.313C32.9376 31.7855 32.2917 31.2073 31.673 30.6077C30.8962 29.8549 30.1591 29.0608 29.4117 28.278C28.9955 27.842 28.6091 27.3767 28.1806 26.9536C27.5918 26.3724 26.8414 26.1758 26.0385 26.1743C22.7963 26.1685 19.5541 26.1661 16.312 26.1755C15.3537 26.1783 14.3941 26.1999 13.438 26.2589C12.8355 26.296 12.3039 26.5869 11.8885 27.0107C11.3581 27.5516 10.9002 28.163 10.379 28.7136C9.73105 29.398 9.07872 30.0832 8.37628 30.7096C7.5641 31.434 6.72597 32.1373 5.8446 32.7744C4.10068 34.0348 1.60964 33.2619 0.847558 31.0909C0.505971 30.1178 0.343174 29.1188 0.228472 28.1037C0.219915 28.028 0.130143 27.9615 0.078125 27.8907ZM10.7133 12.8424C10.6784 12.8572 10.6446 12.8813 10.6085 12.8855C9.92195 12.9637 9.92189 12.9633 9.92188 13.615C9.92187 14.3526 9.92188 15.0903 9.92188 15.8594C9.23029 15.8594 8.5823 15.8594 7.93431 15.8594C7.04231 15.8594 6.92944 15.9492 6.8044 16.835C6.77197 17.0647 6.77258 17.3066 6.80408 17.5365C6.92506 18.4196 7.0442 18.5157 7.93073 18.5157C8.53663 18.5157 9.14252 18.5157 9.76564 18.5157C9.76564 19.3398 9.75359 20.1071 9.77643 20.8734C9.78068 21.0162 9.89078 21.2046 10.0105 21.2871C10.5593 21.6652 11.1553 21.7119 11.7884 21.4935C12.4957 21.2495 12.5 21.262 12.5 20.5464C12.5 19.8754 12.5 19.2044 12.5 18.5157C13.0113 18.5157 13.4657 18.5157 13.9202 18.5157C14.3746 18.5157 14.829 18.5157 15.3818 18.5157C15.4641 17.9675 15.5933 17.4341 15.6129 16.8967C15.6388 16.1855 15.2771 15.8594 14.5868 15.8594C13.9274 15.8594 13.268 15.8594 12.5781 15.8594C12.5781 15.2578 12.5781 14.7008 12.5781 14.1438C12.5781 13.1108 12.5803 13.1011 11.5859 12.8724C11.3265 12.8127 11.0485 12.8337 10.7133 12.8424ZM29.8401 20.2505C30.0487 19.814 30.0588 19.3536 29.9496 18.8991C29.7174 17.9322 28.6504 17.0376 27.3821 17.3495C26.6408 17.5318 26.1307 17.9828 25.8543 18.7135C25.5605 19.4899 25.7241 20.1929 26.2287 20.7833C27.2954 22.0314 29.1678 21.7074 29.8401 20.2505ZM26.6045 15.1583C27.409 15.7159 28.2582 15.7234 29.0392 15.1904C29.7255 14.7218 30.156 13.9423 29.9189 12.9871C29.6795 12.0232 28.827 11.3383 27.8778 11.3255C26.991 11.3137 26.1309 11.8927 25.8011 12.8496C25.5331 13.627 25.9043 14.7213 26.6045 15.1583ZM32.3995 18.5946C32.7117 18.6464 33.0221 18.7262 33.3362 18.745C34.4601 18.8122 35.5507 17.5441 35.3401 16.3184C35.1013 14.929 33.3779 13.915 32.0109 14.9407C31.3605 15.4286 31.0328 16.1065 31.1586 16.9775C31.2695 17.7456 31.7563 18.1909 32.3995 18.5946Z" fill="#1B74E4"/>
</g>
<defs>
<clipPath id="clip0_27_166">
<rect width="40" height="40" fill="white"/>
</clipPath>
</defs>
</svg>
