<svg width="40" height="40" viewBox="0 0 40 40" fill="none" xmlns="http://www.w3.org/2000/svg">
<g clip-path="url(#clip0_28_174)">
<path d="M25.2117 23.7667C26.0605 24.5397 26.7989 25.3557 27.3004 26.3801C27.7313 27.2602 28.0955 28.163 28.1139 29.1395C28.1701 32.1154 28.1754 35.0923 28.1999 38.0688C28.2001 38.0939 28.191 38.1191 28.1806 38.1737C22.7914 38.1737 17.3968 38.1737 11.9532 38.1737C11.9532 38.0384 11.9532 37.9003 11.9532 37.7621C11.9531 35.1319 11.9132 32.5009 11.9662 29.8718C12.0061 27.8935 12.7008 26.1414 14.0475 24.6532C15.115 23.4734 16.3977 22.6666 17.9276 22.2599C18.8974 22.002 19.8747 21.8943 20.8932 22.0096C21.8468 22.1176 22.7516 22.356 23.6055 22.7541C24.1665 23.0157 24.6648 23.4116 25.2117 23.7667Z" fill="#1B74E4"/>
<path d="M33.1782 15.6477C34.0476 15.9644 34.7757 16.4636 35.4355 17.0479C36.757 18.218 37.6341 19.6675 38.0025 21.4035C38.0978 21.8523 38.1914 22.3124 38.1943 22.7679C38.2115 25.54 38.2023 28.3123 38.201 31.0846C38.201 31.1222 38.1903 31.1597 38.1806 31.2233C35.1044 31.2233 32.0284 31.2233 28.9206 31.2233C29.0474 26.4747 26.9748 23.1947 22.4152 21.5434C22.5768 21.4566 22.7344 21.362 22.8999 21.2845C24.1788 20.6853 25.1369 19.739 25.8083 18.5142C26.2264 17.7513 26.4445 16.9111 26.5703 16.0477C26.588 15.9266 26.6867 15.7646 26.7914 15.717C28.124 15.1115 29.5422 14.9612 30.9737 15.0985C31.7102 15.1691 32.4269 15.4467 33.1782 15.6477Z" fill="#1B74E4"/>
<path d="M8.7515 15.1561C10.3829 14.9323 11.9388 15.0735 13.4101 15.754C13.569 15.8275 13.6256 16.1975 13.6652 16.4405C13.8564 17.6138 14.3356 18.646 15.0752 19.5757C15.7476 20.421 16.6071 20.9961 17.5709 21.4419C17.6265 21.4676 17.6766 21.5053 17.738 21.5428C13.1924 23.1743 11.117 26.4533 11.2377 31.2255C8.14691 31.2255 5.07104 31.2255 1.95311 31.2255C1.95311 31.0774 1.95311 30.9384 1.95311 30.7994C1.95311 28.3006 1.95775 25.8018 1.95157 23.303C1.94703 21.4686 2.44636 19.7841 3.54338 18.3193C4.73364 16.73 6.31052 15.6798 8.26544 15.2358C8.4141 15.2021 8.56598 15.1824 8.7515 15.1561Z" fill="#1B74E4"/>
<path d="M25.6842 13.8651C25.7515 14.56 25.8537 15.2256 25.8489 15.8903C25.8401 17.0966 25.3477 18.1418 24.6248 19.0844C23.6723 20.3263 22.371 21.0221 20.86 21.2246C19.2677 21.4381 17.7773 21.0462 16.4862 20.04C15.4513 19.2335 14.7714 18.1832 14.4583 16.9167C14.1223 15.5571 14.2099 14.2111 14.8306 12.9432C15.6679 11.2327 17.039 10.154 18.9053 9.77665C20.1503 9.52494 21.3944 9.63683 22.5533 10.1893C23.6265 10.7009 24.5103 11.4523 25.0769 12.5204C25.3019 12.9444 25.4744 13.3962 25.6842 13.8651Z" fill="#1B74E4"/>
<path d="M15.8594 9.12153C15.7538 10.1002 15.3662 10.9009 14.8492 11.7061C14.027 12.9868 12.9505 13.8239 11.4918 14.1716C9.68585 14.602 8.02832 14.2659 6.53686 13.1409C5.26394 12.1808 4.50057 10.8893 4.32063 9.3359C4.11846 7.59062 4.53434 5.98405 5.77756 4.64028C7.07739 3.23532 8.68194 2.61279 10.5556 2.74824C12.0257 2.85452 13.2798 3.47416 14.3129 4.56823C15.1741 5.48017 15.6434 6.55494 15.8443 7.75891C15.9162 8.18967 15.8581 8.64212 15.8594 9.12153Z" fill="#1B74E4"/>
<path d="M24.3942 9.80604C24.3527 9.29915 24.2998 8.82313 24.301 8.34725C24.3081 5.73456 26.1584 3.54677 28.58 2.91473C30.4107 2.43694 32.1569 2.77258 33.6575 3.95227C34.7933 4.8451 35.5491 6.01866 35.7809 7.47939C36.1147 9.58281 35.5527 11.4002 33.9753 12.849C33.0404 13.7077 31.9258 14.1826 30.6379 14.3095C29.0176 14.4692 27.6009 14.0183 26.3691 13.0114C25.9656 12.6815 25.722 12.1618 25.378 11.7518C24.9033 11.1861 24.5499 10.5672 24.3942 9.80604Z" fill="#1B74E4"/>
</g>
<defs>
<clipPath id="clip0_28_174">
<rect width="40" height="40" fill="white"/>
</clipPath>
</defs>
</svg>
