<svg width="42" height="37" viewBox="0 0 42 37" fill="none" xmlns="http://www.w3.org/2000/svg">
<path d="M9.98042 9.07104C4.55628 14.0839 0 18.6194 0 19.2162C0 22.3194 3.146 20.6485 11.2822 13.2485C16.2724 8.59362 20.7202 4.77426 21.1541 4.77426C21.5881 4.77426 26.1444 8.59362 31.1346 13.2485C38.0775 19.6936 40.5726 21.4839 41.5489 20.4097C42.5253 19.3355 41.9828 18.142 39.2708 15.3968C36.2333 12.2936 35.7993 10.9807 35.7993 5.84846C35.7993 0.358134 35.5824 6.8162e-05 33.0873 6.8162e-05C30.9176 6.8162e-05 30.3752 0.596842 30.3752 2.98394C30.3752 4.65491 30.0497 5.96781 29.7243 5.96781C29.3988 5.96781 27.5546 4.65491 25.6019 2.98394C23.6492 1.31297 21.5881 6.8162e-05 21.0457 6.8162e-05C20.5032 6.8162e-05 15.513 4.05813 9.98042 9.07104Z" fill="#1B74E4"/>
<path d="M13.3433 14.5613L6.50891 20.7677V28.8839V37H11.9331H17.3572V31.629C17.3572 26.2581 17.3572 26.2581 21.1541 26.2581C24.951 26.2581 24.951 26.2581 24.951 31.629V37H30.3751H35.7993V28.8839V20.7677L28.7479 14.5613C24.951 11.1 21.3711 8.35484 20.9371 8.35484C20.5032 8.35484 17.0317 11.2194 13.3433 14.5613Z" fill="#1B74E4"/>
</svg>
