<svg width="40" height="37" viewBox="0 0 40 37" fill="none" xmlns="http://www.w3.org/2000/svg">
<g clip-path="url(#clip0_32_269)">
<path d="M0.078125 6.24868C0.130086 6.18094 0.213142 6.1567 0.229404 6.11177C0.538861 5.25682 1.59828 4.68775 2.48485 4.68871C14.1928 4.7015 25.9009 4.70338 37.6088 4.68512C38.5072 4.68372 39.6643 5.25323 39.9342 6.16219C39.9459 6.20173 40.0013 6.23018 40.0572 6.23931C40.0781 6.72219 40.0781 7.22956 40.0781 7.7708C40.0263 7.83703 39.9429 7.85975 39.9274 7.90318C39.6201 8.76631 38.5446 9.33347 37.6372 9.33229C25.929 9.3171 14.2208 9.31688 2.51264 9.33309C1.63925 9.3343 0.491535 8.76089 0.22359 7.86101C0.21179 7.82139 0.157379 7.79261 0.10047 7.78172C0.078125 7.29729 0.078125 6.78991 0.078125 6.24868Z" fill="#1B74E4"/>
<path d="M40.0781 19.3333C40.0263 19.3995 39.9429 19.4223 39.9274 19.4657C39.6201 20.3288 38.5447 20.896 37.6369 20.8948C25.9405 20.8796 14.2441 20.8786 2.54781 20.8969C1.64901 20.8983 0.491952 20.3287 0.222073 19.4198C0.210331 19.3803 0.154956 19.3518 0.0990152 19.3427C0.0781248 18.8598 0.0781248 18.3524 0.078125 17.8112C0.130086 17.7434 0.213142 17.7192 0.229405 17.6743C0.538862 16.8193 1.59828 16.2502 2.48484 16.2512C14.1928 16.264 25.9009 16.2659 37.6088 16.2476C38.5072 16.2462 39.6643 16.8157 39.9342 17.7247C39.9459 17.7642 40.0013 17.7927 40.0572 17.8018C40.0781 18.2847 40.0781 18.7921 40.0781 19.3333Z" fill="#1B74E4"/>
<path d="M40.0781 30.8959C40.0263 30.9621 39.9429 30.9848 39.9274 31.0283C39.6201 31.8913 38.5447 32.4585 37.6369 32.4574C25.9405 32.4421 14.2441 32.4411 2.54781 32.4594C1.64901 32.4608 0.491953 31.8913 0.222073 30.9824C0.210332 30.9428 0.154957 30.9144 0.0990161 30.9052C0.0781255 30.4223 0.0781255 29.915 0.078125 29.3737C0.130085 29.306 0.213141 29.2818 0.229405 29.2368C0.53886 28.3819 1.59828 27.8128 2.48485 27.8138C14.1928 27.8266 25.9008 27.8284 37.6088 27.8102C38.5072 27.8088 39.6643 28.3783 39.9342 29.2872C39.9459 29.3268 40.0013 29.3552 40.0572 29.3644C40.0781 29.8472 40.0781 30.3546 40.0781 30.8959Z" fill="#1B74E4"/>
</g>
<defs>
<clipPath id="clip0_32_269">
<rect width="40" height="37" fill="white"/>
</clipPath>
</defs>
</svg>
