<svg width="40" height="40" viewBox="0 0 40 40" fill="none" xmlns="http://www.w3.org/2000/svg">
<g clip-path="url(#clip0_30_182)">
<path d="M0.078125 2.69283C0.291489 2.45548 0.475261 2.19742 0.725551 2.06815C1.05395 1.89855 1.43294 1.74144 1.79339 1.73398C3.45897 1.69948 5.12567 1.71833 6.79197 1.71894C7.51513 1.7192 8.1246 2.16042 8.3591 2.85596C8.87907 4.39819 9.39683 5.94116 9.91605 7.48365C10.118 8.08372 10.4946 8.35925 11.1127 8.35926C19.9779 8.35942 28.8431 8.35915 37.7084 8.3596C39.0622 8.35967 39.8645 9.44243 39.4399 10.7276C37.9916 15.1109 36.5328 19.4907 35.077 23.8715C34.8267 24.6248 34.2673 25.0882 33.3739 25.0859C27.581 25.0707 21.788 25.0751 15.995 25.081C14.9768 25.082 14.6661 25.3541 14.4531 26.3114C14.3759 26.659 14.2894 27.0045 14.2146 27.3525C14.098 27.8951 14.4728 28.31 14.9613 28.3576C15.0645 28.3677 15.1695 28.3594 15.2736 28.3594C21.8607 28.3594 28.4478 28.3589 35.0349 28.36C35.9288 28.3601 36.5966 28.8984 36.7759 29.8189C36.9034 30.4734 36.5851 31.2579 35.7862 31.63C35.5522 31.7391 35.2698 31.7899 35.0095 31.7902C28.3313 31.7987 21.6529 31.8202 14.9749 31.7829C12.9211 31.7715 11.2744 30.3088 10.852 28.2741C10.6587 27.3431 10.8132 26.4463 11.1102 25.5908C11.611 24.1481 11.4337 22.7954 10.9472 21.38C9.19065 16.2684 7.49645 11.1353 5.78858 6.00709C5.55449 5.30421 5.1875 5.12587 4.37631 5.08713C3.53207 5.04681 2.68357 5.055 1.83849 5.08531C1.14076 5.11035 0.623545 4.85061 0.253327 4.26979C0.222651 4.22167 0.174728 4.18453 0.106471 4.14146C0.078125 3.67022 0.078125 3.19982 0.078125 2.69283Z" fill="#1B74E4"/>
<path d="M12.3804 40.0781C12.276 40.0026 12.2219 39.8857 12.1383 39.8578C10.9989 39.4786 10.0503 38.0479 10.0509 36.8262C10.0516 35.3623 10.8714 34.0732 12.2617 33.5641C13.6606 33.0519 15.3072 33.5246 16.1919 34.8258C17.1275 36.2017 16.9613 38.0758 15.745 39.1933C15.3619 39.5452 14.852 39.7591 14.4267 40.0572C13.7744 40.0781 13.0957 40.0781 12.3804 40.0781Z" fill="#1B74E4"/>
<path d="M32.3804 40.0781C32.276 40.0026 32.2219 39.8857 32.1383 39.8578C30.9989 39.4786 30.0503 38.0479 30.0509 36.8262C30.0516 35.3623 30.8714 34.0731 32.2617 33.5641C33.6606 33.0519 35.3072 33.5246 36.1919 34.8258C37.1275 36.2017 36.9613 38.0758 35.745 39.1932C35.3619 39.5452 34.852 39.7591 34.4267 40.0571C33.7744 40.0781 33.0957 40.0781 32.3804 40.0781Z" fill="#1B74E4"/>
</g>
<defs>
<clipPath id="clip0_30_182">
<rect width="40" height="40" fill="white"/>
</clipPath>
</defs>
</svg>
