<svg width="37" height="39" viewBox="0 0 37 39" fill="none" xmlns="http://www.w3.org/2000/svg">
<path d="M16.5349 0.112383C12.0291 0.813334 8.26329 4.33333 7.52329 8.5238C7.36707 9.45332 7.36707 11.099 7.52329 12.0286C8.26329 16.2571 12.0455 19.7619 16.6089 20.4476C17.612 20.5923 19.388 20.5923 20.3911 20.4476C24.9544 19.7619 28.7366 16.2571 29.4766 12.0286C29.6329 11.099 29.6329 9.45332 29.4766 8.5238C28.7366 4.29523 24.9544 0.790477 20.3911 0.104764C19.4291 -0.0399976 17.4804 -0.0323786 16.5349 0.112383Z" fill="#1B74E4"/>
<path d="M13.69 22.9696C8.96222 23.6629 4.90867 26.1619 2.368 29.9562C0.888 32.1505 0 34.9695 0 37.4229C0 38.36 0.0822222 38.5733 0.542667 38.8552C0.772889 38.9924 1.28267 39 18.5 39C35.7173 39 36.2271 38.9924 36.4573 38.8552C36.9178 38.5733 37 38.36 37 37.4076C37 33.6667 35.1171 29.72 32.0091 26.9619C29.7316 24.9353 27.1991 23.7086 23.9596 23.061C23.1949 22.9086 22.8824 22.901 18.7878 22.8781C15.3262 22.8629 14.2738 22.8781 13.69 22.9696Z" fill="#1B74E4"/>
</svg>
