<svg width="61" height="71" viewBox="0 0 61 71" fill="none" xmlns="http://www.w3.org/2000/svg">
<path d="M1 39.7534L15.5792 1H36.9923L41.5483 2.41781L46.1042 4.30822L51.3436 8.08904L55.8996 13.2877L58.6332 19.1952L60 24.6301V31.2466L58.6332 37.3904L55.8996 43.0616L51.3436 48.4966L46.1042 52.2774L41.5483 54.1678L36.9923 54.8767H31.5251H24.2355H15.5792L21.7297 41.8801H24.2355H28.5637H33.1197L38.5869 40.4623L42.4595 37.3904L44.5097 33.137C44.5097 33.137 46.0038 30.5026 45.4208 27.4658L44.5097 22.976L42.4595 19.1952L38.5869 16.1233C36.5512 15.1237 35.3701 14.7049 33.1197 14.4692C30.8693 14.2335 24.2355 14.4692 24.2355 14.4692L19.2239 26.5205L26.2857 25.339L2.59459 70L9.88417 37.3904L1 39.7534Z" fill="#1B74E4"/>
<path d="M1 39.7534L15.5792 1H36.9923L41.5483 2.41781L46.1042 4.30822L51.3436 8.08904L55.8996 13.2877L58.6332 19.1952L60 24.6301V31.2466L58.6332 37.3904L55.8996 43.0616L51.3436 48.4966L46.1042 52.2774L41.5483 54.1678L36.9923 54.8767H31.5251H24.2355H15.5792L21.7297 41.8801H24.2355H28.5637H33.1197L38.5869 40.4623L42.4595 37.3904L44.5097 33.137C44.5097 33.137 46.0038 30.5026 45.4208 27.4658L44.5097 22.976L42.4595 19.1952L38.5869 16.1233C36.5512 15.1237 35.3701 14.7049 33.1197 14.4692C30.8693 14.2335 24.2355 14.4692 24.2355 14.4692M1 39.7534L9.88417 37.3904L2.59459 70L26.2857 25.339L19.2239 26.5205L24.2355 14.4692M1 39.7534L24.2355 14.4692" stroke="#1B74E4"/>
</svg>
