<svg width="40" height="39" viewBox="0 0 40 39" fill="none" xmlns="http://www.w3.org/2000/svg">
<g clip-path="url(#clip0_30_231)">
<path d="M39.4311 22.1002L39.9258 22.1727L39.4311 22.1002C39.408 22.258 39.39 22.4209 39.3733 22.5728C39.3674 22.6266 39.3616 22.679 39.3558 22.7293C39.3327 22.9297 39.3078 23.1123 39.269 23.286C38.8887 24.9866 38.3754 26.6222 37.5354 28.1125C36.9325 29.182 36.226 30.208 35.4942 31.2299C34.4943 32.6261 33.2009 33.7814 31.7846 34.8304C30.6856 35.6445 29.4843 36.3207 28.2072 36.886C26.4364 37.67 24.6097 38.2032 22.6912 38.4335C22.5687 38.4482 22.477 38.499 22.4214 38.5374C22.4028 38.5502 22.3857 38.5634 22.3704 38.5762C20.8174 38.5761 19.268 38.575 17.7023 38.5481C17.3088 38.4428 16.9142 38.3435 16.5082 38.2814C14.7412 38.0115 13.0654 37.4427 11.4553 36.6659C9.93242 35.9311 8.52812 35.0246 7.25203 33.9244C6.15041 32.9745 5.16263 31.9343 4.28611 30.7917C3.37736 29.6071 2.62792 28.3259 2.05356 26.9654C1.3857 25.3834 0.875216 23.7778 0.724721 22.0993C0.709674 21.9315 0.62217 21.8208 0.578129 21.7725C0.578202 20.2749 0.579618 18.7809 0.607186 17.2712C0.688562 17.0066 0.761476 16.7394 0.803519 16.4602C1.0722 14.6757 1.64482 12.9755 2.45165 11.3455C3.05015 10.1364 3.78172 9.00188 4.63129 7.9274C5.71338 6.55885 6.9674 5.36226 8.37288 4.32327C9.51622 3.47805 10.7598 2.77257 12.0866 2.20018C13.8166 1.45378 15.5982 0.940699 17.4646 0.71888C17.5874 0.704277 17.6793 0.653406 17.7349 0.614989C17.7536 0.602129 17.7706 0.588937 17.7859 0.576174C19.3417 0.576224 20.8939 0.577385 22.4621 0.604348C22.6857 0.655388 22.9198 0.696811 23.1336 0.734663C23.2596 0.756965 23.3786 0.778027 23.4844 0.799086C25.2946 1.1596 27.0385 1.6656 28.665 2.46504C29.8558 3.05028 30.9819 3.7316 32.0387 4.5291C33.4429 5.58869 34.6786 6.80574 35.7372 8.17661C36.5685 9.25311 37.2713 10.4184 37.8466 11.6607C38.6468 13.3891 39.197 15.1666 39.4321 17.0334C39.4482 17.161 39.5036 17.2547 39.5434 17.3093C39.5549 17.3252 39.5666 17.3398 39.5781 17.3531C39.5781 18.8316 39.5769 20.3065 39.551 21.796C39.549 21.7991 39.547 21.8022 39.545 21.8053C39.5067 21.8658 39.4506 21.967 39.4311 22.1002ZM30.9744 15.3262L30.9746 15.3259C31.0333 15.2686 31.0988 15.2069 31.1678 15.1419C31.3357 14.9837 31.5243 14.8061 31.6855 14.6254C32.4254 13.7964 32.5553 12.6784 31.9413 11.7928C31.471 11.1145 30.8089 10.6955 30.0784 10.6202C29.3465 10.5447 28.6125 10.8211 28.0148 11.4045C25.0178 14.3297 22.0188 17.2529 19.0197 20.1762C18.3318 20.8468 17.6438 21.5173 16.9559 22.1879C16.8581 22.1023 16.7608 22.0172 16.6639 21.9326C16.2014 21.5282 15.7486 21.1324 15.2999 20.7292C14.9546 20.419 14.6043 20.0977 14.2518 19.7745C13.7883 19.3495 13.3211 18.921 12.8566 18.5095C12.8067 18.4653 12.756 18.42 12.7045 18.374C12.324 18.0342 11.8986 17.6544 11.4187 17.3642C10.9821 17.1 10.546 16.9699 10.0908 17.0025C9.64415 17.0345 9.23752 17.2193 8.84989 17.4756C8.02841 18.0189 7.69822 19.1225 7.92209 19.9529C8.11429 20.6659 8.57114 21.1276 9.03211 21.5127C9.69353 22.0652 10.3331 22.6391 10.9802 23.2199C11.1763 23.3959 11.3731 23.5725 11.5715 23.7493C11.8591 24.0058 12.1467 24.2616 12.434 24.5172C13.4142 25.389 14.3912 26.258 15.3558 27.1411C16.3585 28.059 17.7813 28.0992 18.7826 27.1361C19.2468 26.6897 19.7113 26.2433 20.1758 25.7968C21.7752 24.2596 23.3755 22.7215 24.9694 21.1776C26.353 19.8373 27.7317 18.4913 29.1225 17.1333C29.7369 16.5334 30.3537 15.9312 30.9744 15.3262Z" stroke="white"/>
</g>
<defs>
<clipPath id="clip0_30_231">
<rect width="40" height="39" fill="white"/>
</clipPath>
</defs>
</svg>
