<svg width="41" height="41" viewBox="0 0 41 41" fill="none" xmlns="http://www.w3.org/2000/svg">
<g clip-path="url(#clip0_30_217)">
<path d="M25.0339 24.4184C25.1904 24.5264 25.355 24.64 25.5349 24.7576C26.3709 25.5222 27.065 26.3019 27.5339 27.2595L27.9184 27.0712L27.5339 27.2595C27.9693 28.1489 28.3001 28.9916 28.3168 29.8774C28.3586 32.0911 28.3729 34.3039 28.3873 36.5203C28.3918 37.2225 28.3963 37.925 28.4018 38.628H28.3996H28.3672H28.3348H28.3025H28.2701H28.2377H28.2054H28.173H28.1406H28.1083H28.0759H28.0435H28.0111H27.9788H27.9464H27.914H27.8817H27.8493H27.8169H27.7845H27.7522H27.7198H27.6874H27.6551H27.6227H27.5903H27.5579H27.5256H27.4932H27.4608H27.4284H27.3961H27.3637H27.3313H27.2989H27.2666H27.2342H27.2018H27.1694H27.1371H27.1047H27.0723H27.0399H27.0075H26.9752H26.9428H26.9104H26.878H26.8457H26.8133H26.7809H26.7485H26.7161H26.6838H26.6514H26.619H26.5866H26.5542H26.5219H26.4895H26.4571H26.4247H26.3923H26.3599H26.3276H26.2952H26.2628H26.2304H26.198H26.1656H26.1333H26.1009H26.0685H26.0361H26.0037H25.9713H25.9389H25.9066H25.8742H25.8418H25.8094H25.777H25.7446H25.7122H25.6798H25.6475H25.6151H25.5827H25.5503H25.5179H25.4855H25.4531H25.4207H25.3883H25.3559H25.3235H25.2911H25.2588H25.2264H25.194H25.1616H25.1292H25.0968H25.0644H25.032H24.9996H24.9672H24.9348H24.9024H24.87H24.8376H24.8052H24.7728H24.7404H24.708H24.6756H24.6432H24.6108H24.5784H24.546H24.5136H24.4812H24.4488H24.4164H24.384H24.3516H24.3192H24.2868H24.2544H24.222H24.1896H24.1572H24.1247H24.0923H24.0599H24.0275H23.9951H23.9627H23.9303H23.8979H23.8655H23.8331H23.8007H23.7682H23.7358H23.7034H23.671H23.6386H23.6062H23.5738H23.5414H23.5089H23.4765H23.4441H23.4117H23.3793H23.3469H23.3144H23.282H23.2496H23.2172H23.1848H23.1523H23.1199H23.0875H23.0551H23.0227H22.9902H22.9578H22.9254H22.893H22.8605H22.8281H22.7957H22.7633H22.7308H22.6984H22.666H22.6335H22.6011H22.5687H22.5363H22.5038H22.4714H22.439H22.4065H22.3741H22.3417H22.3092H22.2768H22.2444H22.2119H22.1795H22.1471H22.1146H22.0822H22.0497H22.0173H21.9849H21.9524H21.92H21.8875H21.8551H21.8227H21.7902H21.7578H21.7253H21.6929H21.6604H21.628H21.5956H21.5631H21.5307H21.4982H21.4658H21.4333H21.4009H21.3684H21.336H21.3035H21.2711H21.2386H21.2062H21.1737H21.1413H21.1088H21.0763H21.0439H21.0114H20.979H20.9465H20.9141H20.8816H20.8491H20.8167H20.7842H20.7518H20.7193H20.6868H20.6544H20.6219H20.5894H20.557H20.5245H20.4921H20.4596H20.4271H20.3946H20.3622H20.3297H20.2972H20.2648H20.2323H20.1998H20.1674H20.1349H20.1024H20.0699H20.0375H20.005H19.9725H19.94H19.9075H19.8751H19.8426H19.8101H19.7776H19.7451H19.7127H19.6802H19.6477H19.6152H19.5827H19.5502H19.5178H19.4853H19.4528H19.4203H19.3878H19.3553H19.3228H19.2903H19.2578H19.2253H19.1928H19.1604H19.1279H19.0954H19.0629H19.0304H18.9979H18.9654H18.9329H18.9004H18.8679H18.8354H18.8029H18.7704H18.7379H18.7054H18.6728H18.6403H18.6078H18.5753H18.5428H18.5103H18.4778H18.4453H18.4128H18.3803H18.3477H18.3152H18.2827H18.2502H18.2177H18.1852H18.1527H18.1201H18.0876H18.0551H18.0226H17.9901H17.9575H17.925H17.8925H17.86H17.8274H17.7949H17.7624H17.7298H17.6973H17.6648H17.6323H17.5997H17.5672H17.5347H17.5021H17.4696H17.4371H17.4045H17.372H17.3394H17.3069H17.2744H17.2418H17.2093H17.1767H17.1442H17.1117H17.0791H17.0466H17.014H16.9815H16.9489H16.9164H16.8838H16.8513H16.8187H16.7862H16.7536H16.7211H16.6885H16.6559H16.6234H16.5908H16.5583H16.5257H16.4932H16.4606H16.428H16.3955H16.3629H16.3303H16.2978H16.2652H16.2326H16.2001H16.1675H16.1349H16.1024H16.0698H16.0372H16.0046H15.9721H15.9395H15.9069H15.8743H15.8418H15.8092H15.7766H15.744H15.7114H15.6788H15.6463H15.6137H15.5811H15.5485H15.5159H15.4833H15.4507H15.4181H15.3856H15.353H15.3204H15.2878H15.2552H15.2226H15.19H15.1574H15.1248H15.0922H15.0596H15.027H14.9944H14.9618H14.9292H14.8966H14.864H14.8313H14.7987H14.7661H14.7335H14.7009H14.6683H14.6357H14.6031H14.5704H14.5378H14.5052H14.4726H14.44H14.4073H14.3747H14.3421H14.3095H14.2768H14.2442H14.2116H14.179H14.1463H14.1137H14.0811H14.0484H14.0158H13.9832H13.9505H13.9179H13.8853H13.8526H13.82H13.7873H13.7547H13.722H13.6894H13.6568H13.6241H13.5915H13.5588H13.5262H13.4935H13.4609H13.4282H13.3956H13.3629H13.3302H13.2976H13.2649H13.2323H13.1996H13.1669H13.1343H13.1016H13.069H13.0363H13.0036H12.971H12.9383H12.9056H12.8729H12.8403H12.8076H12.7749H12.752C12.7517 37.839 12.7481 37.052 12.7446 36.2662C12.736 34.3831 12.7274 32.5072 12.7653 30.6287C12.8037 28.7222 13.4694 27.0417 14.7694 25.605C15.8023 24.4635 17.0343 23.6904 18.5042 23.2996L18.3997 22.9064L18.5042 23.2996C19.4498 23.0482 20.3882 22.9467 21.3593 23.0567C22.2894 23.162 23.1636 23.3934 23.9844 23.7761L24.1957 23.323L23.9844 23.7761C24.3503 23.9467 24.6703 24.1675 25.0339 24.4184Z" stroke="white"/>
<path d="M33.1836 16.3204C33.4056 16.3872 33.6386 16.4572 33.8565 16.516C34.6626 16.8132 35.3496 17.2814 35.9899 17.8484C37.2685 18.9806 38.1092 20.3731 38.4635 22.0424L38.9526 21.9386L38.4635 22.0424C38.5622 22.5077 38.6466 22.9316 38.6491 23.3402C38.6626 25.5198 38.6602 27.6991 38.6578 29.8805C38.6572 30.4215 38.6566 30.9626 38.6563 31.5039H38.6547H38.6363H38.6178H38.5993H38.5808H38.5623H38.5439H38.5254H38.5069H38.4884H38.47H38.4515H38.433H38.4145H38.3961H38.3776H38.3591H38.3406H38.3222H38.3037H38.2852H38.2667H38.2483H38.2298H38.2113H38.1928H38.1743H38.1559H38.1374H38.1189H38.1004H38.082H38.0635H38.045H38.0265H38.0081H37.9896H37.9711H37.9526H37.9341H37.9157H37.8972H37.8787H37.8602H37.8418H37.8233H37.8048H37.7863H37.7678H37.7494H37.7309H37.7124H37.6939H37.6754H37.657H37.6385H37.62H37.6015H37.583H37.5646H37.5461H37.5276H37.5091H37.4906H37.4722H37.4537H37.4352H37.4167H37.3982H37.3798H37.3613H37.3428H37.3243H37.3058H37.2873H37.2689H37.2504H37.2319H37.2134H37.1949H37.1765H37.158H37.1395H37.121H37.1025H37.084H37.0656H37.0471H37.0286H37.0101H36.9916H36.9731H36.9546H36.9362H36.9177H36.8992H36.8807H36.8622H36.8437H36.8253H36.8068H36.7883H36.7698H36.7513H36.7328H36.7143H36.6958H36.6774H36.6589H36.6404H36.6219H36.6034H36.5849H36.5664H36.5479H36.5294H36.511H36.4925H36.474H36.4555H36.437H36.4185H36.4H36.3815H36.363H36.3445H36.3261H36.3076H36.2891H36.2706H36.2521H36.2336H36.2151H36.1966H36.1781H36.1596H36.1411H36.1226H36.1041H36.0856H36.0672H36.0487H36.0302H36.0117H35.9932H35.9747H35.9562H35.9377H35.9192H35.9007H35.8822H35.8637H35.8452H35.8267H35.8082H35.7897H35.7712H35.7527H35.7342H35.7157H35.6972H35.6787H35.6602H35.6417H35.6232H35.6047H35.5862H35.5677H35.5492H35.5307H35.5122H35.4937H35.4752H35.4567H35.4382H35.4197H35.4012H35.3827H35.3642H35.3457H35.3272H35.3087H35.2901H35.2716H35.2531H35.2346H35.2161H35.1976H35.1791H35.1606H35.1421H35.1236H35.1051H35.0866H35.0681H35.0495H35.031H35.0125H34.994H34.9755H34.957H34.9385H34.92H34.9015H34.8829H34.8644H34.8459H34.8274H34.8089H34.7904H34.7719H34.7533H34.7348H34.7163H34.6978H34.6793H34.6608H34.6422H34.6237H34.6052H34.5867H34.5682H34.5497H34.5311H34.5126H34.4941H34.4756H34.4571H34.4385H34.42H34.4015H34.383H34.3644H34.3459H34.3274H34.3089H34.2903H34.2718H34.2533H34.2348H34.2162H34.1977H34.1792H34.1607H34.1421H34.1236H34.1051H34.0866H34.068H34.0495H34.031H34.0124H33.9939H33.9754H33.9568H33.9383H33.9198H33.9013H33.8827H33.8642H33.8457H33.8271H33.8086H33.79H33.7715H33.753H33.7344H33.7159H33.6974H33.6788H33.6603H33.6418H33.6232H33.6047H33.5861H33.5676H33.5491H33.5305H33.512H33.4934H33.4749H33.4563H33.4378H33.4193H33.4007H33.3822H33.3636H33.3451H33.3265H33.308H33.2894H33.2709H33.2523H33.2338H33.2152H33.1967H33.1781H33.1596H33.141H33.1225H33.1039H33.0854H33.0668H33.0483H33.0297H33.0112H32.9926H32.9741H32.9555H32.937H32.9184H32.8998H32.8813H32.8627H32.8442H32.8256H32.8071H32.7885H32.7699H32.7514H32.7328H32.7143H32.6957H32.6771H32.6586H32.64H32.6214H32.6029H32.5843H32.5657H32.5472H32.5286H32.51H32.4915H32.4729H32.4543H32.4358H32.4172H32.3986H32.3801H32.3615H32.3429H32.3243H32.3058H32.2872H32.2686H32.25H32.2315H32.2129H32.1943H32.1757H32.1572H32.1386H32.12H32.1014H32.0828H32.0643H32.0457H32.0271H32.0085H31.9899H31.9714H31.9528H31.9342H31.9156H31.897H31.8784H31.8598H31.8413H31.8227H31.8041H31.7855H31.7669H31.7483H31.7297H31.7111H31.6925H31.6739H31.6554H31.6368H31.6182H31.5996H31.581H31.5624H31.5438H31.5252H31.5066H31.488H31.4694H31.4508H31.4322H31.4136H31.395H31.3764H31.3578H31.3392H31.3206H31.302H31.2834H31.2648H31.2462H31.2276H31.2089H31.1903H31.1717H31.1531H31.1345H31.1159H31.0973H31.0787H31.0601H31.0414H31.0228H31.0042H30.9856H30.967H30.9484H30.9298H30.9111H30.8925H30.8739H30.8553H30.8367H30.818H30.7994H30.7808H30.7622H30.7436H30.7249H30.7063H30.6877H30.6691H30.6504H30.6318H30.6132H30.5945H30.5759H30.5573H30.5387H30.52H30.5014H30.4828H30.4641H30.4455H30.4269H30.4082H30.3896H30.3709H30.3523H30.3337H30.315H30.2964H30.2777H30.2591H30.2405H30.2218H30.2032H30.1845H30.1659H30.1489C30.1366 29.2116 29.6164 27.221 28.5278 25.5765C27.5283 24.0664 26.0719 22.8817 24.1628 22.0231C25.3402 21.3593 26.2422 20.4027 26.8919 19.2174C27.3564 18.3699 27.5925 17.4513 27.7267 16.5388C28.979 15.984 30.3207 15.8414 31.7003 15.9736C32.0333 16.0056 32.372 16.0853 32.736 16.1884C32.8735 16.2273 33.0258 16.273 33.1836 16.3204ZM27.7252 16.5401C27.7252 16.5401 27.7253 16.5398 27.7255 16.5393L27.7252 16.5401ZM27.2346 16.4489L27.237 16.4492L27.2346 16.4489Z" stroke="white"/>
<path d="M15.0608 20.3764C15.6142 21.072 16.2763 21.5976 16.9992 22.0173C15.0941 22.8686 13.6391 24.0498 12.6395 25.5607C11.5508 27.2062 11.0287 29.2027 11.0139 31.5062H10.999H10.9805H10.9619H10.9434H10.9248H10.9063H10.8877H10.8692H10.8506H10.8321H10.8135H10.795H10.7764H10.7579H10.7393H10.7208H10.7022H10.6837H10.6651H10.6466H10.628H10.6095H10.5909H10.5724H10.5538H10.5353H10.5167H10.4982H10.4796H10.4611H10.4425H10.424H10.4054H10.3869H10.3684H10.3498H10.3313H10.3127H10.2942H10.2756H10.2571H10.2385H10.22H10.2014H10.1829H10.1644H10.1458H10.1273H10.1087H10.0902H10.0716H10.0531H10.0345H10.016H9.99746H9.97892H9.96038H9.94183H9.92329H9.90475H9.88621H9.86766H9.84912H9.83058H9.81204H9.7935H9.77496H9.75641H9.73787H9.71933H9.70079H9.68225H9.66371H9.64517H9.62663H9.60809H9.58955H9.57101H9.55246H9.53392H9.51538H9.49684H9.4783H9.45976H9.44122H9.42268H9.40414H9.3856H9.36706H9.34852H9.32998H9.31145H9.29291H9.27437H9.25583H9.23729H9.21875H9.20021H9.18167H9.16313H9.14459H9.12605H9.10751H9.08897H9.07043H9.05189H9.03335H9.01481H8.99627H8.97774H8.9592H8.94066H8.92212H8.90358H8.88504H8.8665H8.84796H8.82942H8.81088H8.79234H8.7738H8.75526H8.73672H8.71818H8.69964H8.6811H8.66256H8.64402H8.62548H8.60694H8.5884H8.56986H8.55132H8.53278H8.51424H8.4957H8.47716H8.45862H8.44008H8.42154H8.403H8.38446H8.36592H8.34737H8.32883H8.31029H8.29175H8.27321H8.25467H8.23613H8.21758H8.19904H8.1805H8.16196H8.14341H8.12487H8.10633H8.08779H8.06924H8.0507H8.03216H8.01362H7.99507H7.97653H7.95798H7.93944H7.9209H7.90235H7.88381H7.86526H7.84672H7.82817H7.80963H7.79108H7.77254H7.75399H7.73545H7.7169H7.69836H7.67981H7.66126H7.64272H7.62417H7.60562H7.58708H7.56853H7.54998H7.53143H7.51289H7.49434H7.47579H7.45724H7.43869H7.42014H7.40159H7.38304H7.36449H7.34594H7.32739H7.30884H7.29029H7.27174H7.25319H7.23464H7.21609H7.19753H7.17898H7.16043H7.14188H7.12332H7.10477H7.08622H7.06766H7.04911H7.03055H7.012H6.99344H6.97489H6.95633H6.93778H6.91922H6.90066H6.88211H6.86355H6.84499H6.82644H6.80788H6.78932H6.77076H6.7522H6.73364H6.71508H6.69652H6.67796H6.6594H6.64084H6.62228H6.60372H6.58516H6.56659H6.54803H6.52947H6.5109H6.49234H6.47378H6.45521H6.43665H6.41808H6.39952H6.38095H6.36239H6.34382H6.32525H6.30668H6.28812H6.26955H6.25098H6.23241H6.21384H6.19527H6.1767H6.15813H6.13956H6.12099H6.10242H6.08385H6.06527H6.0467H6.02813H6.00955H5.99098H5.9724H5.95383H5.93525H5.91668H5.8981H5.87952H5.86095H5.84237H5.82379H5.80521H5.78663H5.76805H5.74947H5.73089H5.71231H5.69373H5.67515H5.65657H5.63798H5.6194H5.60082H5.58223H5.56365H5.54506H5.52648H5.50789H5.4893H5.47072H5.45213H5.43354H5.41495H5.39636H5.37777H5.35918H5.34059H5.322H5.30341H5.28482H5.26622H5.24763H5.22904H5.21044H5.19185H5.17325H5.15465H5.13606H5.11746H5.09886H5.08026H5.06167H5.04307H5.02447H5.00587H4.98726H4.96866H4.95006H4.93146H4.91285H4.89425H4.87565H4.85704H4.83843H4.81983H4.80122H4.78261H4.76401H4.7454H4.72679H4.70818H4.68957H4.67096H4.65234H4.63373H4.61512H4.59651H4.57789H4.55928H4.54066H4.52205H4.50343H4.48481H4.46619H4.44757H4.42896H4.41034H4.39171H4.37309H4.35447H4.33585H4.31723H4.2986H4.27998H4.26135H4.24273H4.2241H4.20547H4.18684H4.16822H4.14959H4.13096H4.11233H4.09369H4.07506H4.05643H4.0378H4.01916H4.00053H3.98189H3.96326H3.94462H3.92598H3.90734H3.8887H3.87006H3.85142H3.83278H3.81414H3.7955H3.77685H3.75821H3.73956H3.72092H3.70227H3.68362H3.66498H3.64633H3.62768H3.60903H3.59038H3.57172H3.55307H3.53442H3.51576H3.49711H3.47845H3.4598H3.44114H3.42248H3.40382H3.38516H3.3665H3.34784H3.32918H3.31052H3.29185H3.27319H3.25453H3.23586H3.21719H3.19852H3.17986H3.16119H3.14252H3.12385H3.10517H3.0865H3.06783H3.04915H3.03048H3.0118H2.99313H2.97445H2.95577H2.93709H2.91841H2.89973H2.88105H2.86236H2.84368H2.825H2.80631H2.78762H2.76894H2.75025H2.73156H2.71287H2.69418H2.67549H2.6568H2.6381H2.61941H2.60071H2.58202H2.56332H2.54462H2.52592H2.50722H2.50198C2.502 30.7592 2.50242 30.0119 2.50283 29.2645C2.50383 27.4716 2.50483 25.6777 2.5004 23.8844C2.49599 22.1008 2.97949 20.4827 4.03221 19.077C5.18329 17.5401 6.6983 16.5323 8.58284 16.1043L8.47212 15.6168L8.58285 16.1043C8.69558 16.0787 8.81047 16.0625 8.9753 16.0393C8.99586 16.0364 9.01719 16.0334 9.0394 16.0303C10.6006 15.8162 12.0622 15.9463 13.4365 16.5568C13.4384 16.5628 13.4404 16.5692 13.4424 16.576C13.4713 16.6741 13.4911 16.7957 13.5128 16.9284L13.5133 16.932C13.7241 18.225 14.2534 19.3614 15.0608 20.3764Z" stroke="white"/>
<path d="M25.8366 14.3412C25.8542 14.5164 25.873 14.685 25.8912 14.849C25.9473 15.3534 25.9985 15.8136 25.9951 16.284C25.9871 17.3768 25.5434 18.3449 24.8437 19.2573C23.9541 20.4171 22.7433 21.0682 21.315 21.2597C19.8149 21.4608 18.4221 21.0947 17.2057 20.1467C16.2334 19.3889 15.5992 18.409 15.3052 17.2197C14.9854 15.9258 15.072 14.6683 15.6504 13.4867C16.4419 11.8699 17.7197 10.8665 19.477 10.5112C20.6581 10.2724 21.8217 10.3804 22.902 10.8954C23.924 11.3826 24.7406 12.0847 25.2622 13.0678C25.4096 13.3457 25.5283 13.6238 25.6597 13.9317C25.7153 14.0621 25.7733 14.1979 25.8366 14.3412Z" stroke="white"/>
<path d="M15.7559 9.32199C15.6554 10.2047 15.3043 10.9427 14.7997 11.7286C14.0175 12.947 13.0169 13.7168 11.6632 14.0395C9.95547 14.4465 8.40972 14.1326 7.00139 13.0703C5.80049 12.1645 5.09329 10.9617 4.92534 9.51174C4.73258 7.84771 5.12676 6.3521 6.28903 5.09583C7.51779 3.76769 9.01396 3.18771 10.7834 3.31563C12.1585 3.41504 13.3292 3.98999 14.3073 5.02572C15.1114 5.87727 15.555 6.88299 15.7472 8.03518C15.7762 8.20887 15.7807 8.39773 15.7754 8.62067C15.7738 8.69093 15.7709 8.76952 15.7678 8.8526C15.7623 9.00198 15.7562 9.16588 15.7559 9.32199Z" stroke="white"/>
<path d="M26.3955 11.7242C25.9543 11.1984 25.6417 10.6459 25.4999 9.97937C25.4913 9.87546 25.4825 9.77472 25.4739 9.67646C25.4389 9.27733 25.4076 8.91927 25.4086 8.55728C25.4151 6.12149 27.1433 4.06584 29.4208 3.47139C31.1509 3.01985 32.7787 3.33475 34.19 4.44416C35.2658 5.28986 35.9658 6.38476 36.1816 7.74475C36.4995 9.74814 35.9706 11.439 34.4865 12.8019C33.6134 13.6039 32.5745 14.0495 31.3548 14.1697C29.8291 14.3201 28.5077 13.9002 27.3448 12.9495C27.1952 12.8272 27.0622 12.6586 26.9083 12.4368C26.876 12.3903 26.842 12.3401 26.8063 12.2875C26.6857 12.1096 26.5467 11.9044 26.3955 11.7242Z" stroke="white"/>
</g>
<defs>
<clipPath id="clip0_30_217">
<rect width="41" height="41" fill="white"/>
</clipPath>
</defs>
</svg>
