<svg width="42" height="40" viewBox="0 0 42 40" fill="none" xmlns="http://www.w3.org/2000/svg">
<path d="M38.9017 16.9825L38.9001 16.9808C37.3699 15.2908 36.4436 14.034 35.9215 12.4643C35.4048 10.9107 35.2993 9.09349 35.2993 6.32266C35.2993 4.8376 35.2856 3.71646 35.2276 2.86471C35.1689 2.00288 35.0673 1.47131 34.9207 1.13561C34.7906 0.837448 34.6324 0.706539 34.3995 0.625589C34.1189 0.528074 33.7189 0.500082 33.0873 0.500082C32.0128 0.500082 31.5497 0.670334 31.3003 0.967005C31.0239 1.29572 30.8752 1.92342 30.8752 3.22589C30.8752 4.15525 30.7918 4.99724 30.6611 5.61906C30.5965 5.92618 30.5156 6.20329 30.4153 6.41545C30.3659 6.5199 30.2998 6.63473 30.2089 6.73076C30.1207 6.82405 29.9577 6.95169 29.7243 6.95169C29.6242 6.95169 29.5379 6.92675 29.4848 6.90868C29.4251 6.88838 29.3663 6.86223 29.3117 6.83514C29.2023 6.78089 29.0781 6.7071 28.9458 6.62143C28.6795 6.44904 28.3446 6.2054 27.9662 5.91074C27.2074 5.32 26.2473 4.50409 25.2624 3.59292C24.3009 2.70345 23.3148 1.91138 22.5077 1.3448C22.1033 1.06098 21.7515 0.839083 21.4751 0.690477C21.3365 0.615997 21.2249 0.564257 21.1404 0.532341C21.1187 0.524162 21.1008 0.518036 21.0863 0.513453C21.0451 0.535662 20.9887 0.569357 20.9155 0.617352C20.734 0.73634 20.4859 0.918726 20.175 1.16324C19.5554 1.65065 18.716 2.36124 17.7155 3.24566C15.7167 5.01273 13.093 7.45766 10.3321 10.1619C7.62366 12.868 5.13481 15.4424 3.32487 17.4184C2.41888 18.4076 1.68806 19.2413 1.18595 19.8643C0.934044 20.1768 0.746641 20.4277 0.624647 20.614C0.563269 20.7077 0.524931 20.7753 0.503711 20.8197C0.502472 20.8223 0.501331 20.8248 0.500282 20.827C0.508771 21.611 0.706519 21.8011 0.812448 21.8456C0.886966 21.8769 1.03363 21.8996 1.30206 21.8318C1.56847 21.7646 1.91163 21.6187 2.34165 21.3726C4.07967 20.3778 6.85517 17.9743 10.9294 13.9683C13.4272 11.4495 15.7909 9.15507 17.5866 7.48844C18.484 6.65555 19.2438 5.97557 19.8093 5.50187C20.091 5.26588 20.3316 5.07505 20.5206 4.9409C20.6142 4.87445 20.7047 4.81504 20.787 4.77014C20.828 4.74773 20.8756 4.72414 20.9266 4.70507C20.9705 4.68866 21.0532 4.66137 21.1541 4.66137C21.2546 4.66137 21.3372 4.68845 21.3805 4.70452C21.4312 4.72331 21.4788 4.74657 21.52 4.76877C21.6026 4.81327 21.694 4.87229 21.7891 4.9386C21.9808 5.07244 22.2256 5.26301 22.5125 5.49903C23.0884 5.97272 23.8618 6.65271 24.7731 7.4859C26.597 9.15341 28.9893 11.4493 31.489 13.97C34.9642 17.4576 37.2989 19.6574 38.8791 20.8419C39.6756 21.4391 40.232 21.7402 40.6141 21.8413C40.7976 21.8899 40.9124 21.8844 40.9825 21.8666C41.0454 21.8506 41.1038 21.8171 41.1662 21.7428C41.3647 21.5067 41.462 21.2942 41.4906 21.0792C41.5197 20.8608 41.4847 20.5893 41.3321 20.2261C41.0169 19.4763 40.26 18.4689 38.9017 16.9825ZM21.1462 0.484882C21.1462 0.484762 21.144 0.485468 21.1393 0.487408C21.1438 0.485992 21.1462 0.485004 21.1462 0.484882ZM39.2708 16.6452C36.2333 13.2904 35.7993 11.871 35.7993 6.32266C35.7993 0.38718 35.5824 8.2016e-05 33.0873 8.2016e-05C30.9176 8.2016e-05 30.3752 0.645243 30.3752 3.22589C30.3752 5.03234 30.0497 6.45169 29.7243 6.45169C29.3988 6.45169 27.5546 5.03234 25.6019 3.22589C23.6492 1.41944 21.5881 8.2016e-05 21.0457 8.2016e-05C20.5032 8.2016e-05 15.513 4.38718 9.98042 9.80653L39.2708 16.6452ZM0.489631 20.853C0.489696 20.853 0.490206 20.8516 0.490968 20.849C0.489948 20.8517 0.489567 20.853 0.489631 20.853Z" stroke="white"/>
<path d="M28.4032 16.1042L28.4032 16.1042L28.3969 16.0981C26.5065 14.235 24.6714 12.566 23.2577 11.3649C22.5501 10.7638 21.9528 10.2839 21.5097 9.95667C21.2871 9.7923 21.1111 9.67219 20.9836 9.59538C20.9688 9.58648 20.9552 9.57846 20.9426 9.57125C20.9315 9.57805 20.9195 9.58555 20.9066 9.59379C20.7824 9.67311 20.611 9.79714 20.3939 9.96667C19.9618 10.3041 19.3808 10.7963 18.6923 11.4065C17.317 12.6253 15.5332 14.2968 13.6932 16.0991L7.00891 22.6614V31.2258V39.5H11.9331H16.8572V34.1935V34.1711C16.8572 32.7384 16.8572 31.6351 16.9178 30.8005C16.9777 29.976 17.1005 29.3177 17.4133 28.8393C17.7547 28.3173 18.2639 28.0888 18.8752 27.9849C19.4511 27.887 20.198 27.8871 21.1078 27.8871H21.1541H21.2004C22.1102 27.8871 22.8571 27.887 23.4329 27.9849C24.0443 28.0888 24.5535 28.3173 24.8948 28.8393C25.2077 29.3177 25.3304 29.976 25.3903 30.8005C25.451 31.6351 25.451 32.7384 25.451 34.171V34.1935V39.5H30.3751H35.2993V31.2258V22.666L28.4032 16.1042ZM20.8352 9.51694C20.8353 9.51709 20.8379 9.51817 20.8428 9.51968C20.8376 9.51756 20.8352 9.5168 20.8352 9.51694ZM21.0402 9.51741C21.0456 9.51562 21.0484 9.51435 21.0484 9.51421C21.0484 9.51406 21.0458 9.51496 21.0402 9.51741Z" stroke="white"/>
</svg>
