<svg width="40" height="37" viewBox="0 0 40 37" fill="none" xmlns="http://www.w3.org/2000/svg">
<g clip-path="url(#clip0_32_277)">
<path d="M0.078125 5.7784C0.130086 5.71067 0.213142 5.68642 0.229404 5.6415C0.538861 4.78655 1.59828 4.21747 2.48485 4.21844C14.1928 4.23123 25.9009 4.2331 37.6088 4.21485C38.5072 4.21345 39.6643 4.78295 39.9342 5.69192C39.9459 5.73145 40.0013 5.7599 40.0572 5.76903C40.0781 6.25191 40.0781 6.75929 40.0781 7.30052C40.0263 7.36675 39.9429 7.38947 39.9274 7.43291C39.6201 8.29604 38.5446 8.8632 37.6372 8.86202C25.929 8.84682 14.2208 8.8466 2.51264 8.86282C1.63925 8.86402 0.491535 8.29062 0.22359 7.39074C0.21179 7.35111 0.157379 7.32234 0.10047 7.31145C0.078125 6.82701 0.078125 6.31964 0.078125 5.7784Z" fill="white"/>
<path d="M40.0781 18.9211C40.0263 18.9874 39.9429 19.0101 39.9274 19.0535C39.6201 19.9166 38.5447 20.4838 37.6369 20.4826C25.9405 20.4674 14.2441 20.4664 2.54781 20.4847C1.64901 20.4861 0.491952 19.9165 0.222073 19.0076C0.210331 18.9681 0.154956 18.9396 0.0990152 18.9305C0.0781248 18.4476 0.0781248 17.9402 0.078125 17.399C0.130086 17.3313 0.213142 17.307 0.229405 17.2621C0.538862 16.4072 1.59828 15.8381 2.48484 15.839C14.1928 15.8518 25.9009 15.8537 37.6088 15.8355C38.5072 15.8341 39.6643 16.4036 39.9342 17.3125C39.9459 17.3521 40.0013 17.3805 40.0572 17.3896C40.0781 17.8725 40.0781 18.3799 40.0781 18.9211Z" fill="white"/>
<path d="M40.0781 30.543C40.0263 30.6092 39.9429 30.632 39.9274 30.6754C39.6201 31.5385 38.5447 32.1057 37.6369 32.1045C25.9405 32.0893 14.2441 32.0883 2.54781 32.1066C1.64901 32.108 0.491953 31.5384 0.222073 30.6295C0.210332 30.59 0.154957 30.5615 0.0990161 30.5524C0.0781255 30.0695 0.0781255 29.5621 0.078125 29.0209C0.130085 28.9532 0.213141 28.9289 0.229405 28.884C0.53886 28.029 1.59828 27.46 2.48485 27.4609C14.1928 27.4737 25.9008 27.4756 37.6088 27.4573C38.5072 27.4559 39.6643 28.0255 39.9342 28.9344C39.9459 28.9739 40.0013 29.0024 40.0572 29.0115C40.0781 29.4944 40.0781 30.0018 40.0781 30.543Z" fill="white"/>
</g>
<defs>
<clipPath id="clip0_32_277">
<rect width="40" height="37" fill="white"/>
</clipPath>
</defs>
</svg>
