<svg width="40" height="40" viewBox="0 0 40 40" fill="none" xmlns="http://www.w3.org/2000/svg">
<g clip-path="url(#clip0_30_225)">
<path d="M0.594584 3.89665C0.580647 3.56956 0.578511 3.23737 0.578184 2.88044C0.586731 2.87042 0.594984 2.86071 0.603055 2.85122C0.651416 2.79433 0.693201 2.74519 0.752011 2.68273C0.84045 2.58881 0.903396 2.53905 0.95499 2.5124C1.27142 2.34898 1.56425 2.23883 1.80374 2.23387C3.03832 2.2083 4.2714 2.21219 5.51142 2.2161C5.93728 2.21744 6.36395 2.21878 6.79179 2.21894C7.29685 2.21912 7.71818 2.52002 7.8853 3.0157C8.19827 3.94397 8.51032 4.87215 8.82245 5.80057C9.02889 6.41463 9.23537 7.0288 9.44218 7.64316C9.56545 8.00939 9.75974 8.32803 10.0631 8.54999C10.3677 8.77288 10.7289 8.85926 11.1127 8.85926C14.4092 8.85932 17.7057 8.85932 21.0023 8.85932C26.571 8.85932 32.1396 8.85932 37.7083 8.8596C38.249 8.85963 38.6283 9.07195 38.838 9.35762C39.0469 9.64208 39.1334 10.0613 38.9651 10.5708C37.8376 13.9833 36.7037 17.3936 35.5697 20.8045C35.2473 21.7742 34.9248 22.744 34.6025 23.7138C34.503 24.0133 34.3533 24.2236 34.1688 24.3604C33.986 24.496 33.7323 24.5868 33.3752 24.5859C27.5813 24.5707 21.7874 24.5751 15.9945 24.581C15.4643 24.5815 14.98 24.6468 14.6071 24.9493C14.235 25.2511 14.0753 25.7073 13.9651 26.2029C13.9345 26.3403 13.8993 26.4906 13.8633 26.6443C13.8159 26.8467 13.7671 27.055 13.7258 27.2475C13.5386 28.1183 14.1651 28.7823 14.9128 28.8553C15.0178 28.8655 15.1503 28.8622 15.226 28.8603C15.2467 28.8598 15.2631 28.8594 15.2736 28.8594C16.8742 28.8594 18.4747 28.8593 20.0753 28.8593C25.0618 28.8592 30.0483 28.8591 35.0348 28.86C35.379 28.86 35.6529 28.9623 35.8542 29.1292C36.0555 29.2961 36.2147 29.5529 36.2851 29.9145C36.3694 30.3473 36.1623 30.9032 35.5751 31.1768C35.4199 31.2491 35.2122 31.2899 35.0089 31.2902C33.7935 31.2917 32.5783 31.2937 31.3632 31.2957C25.9 31.3045 20.4388 31.3134 14.9777 31.2829C13.1812 31.2729 11.7205 29.9979 11.3415 28.1724C11.173 27.3607 11.3028 26.5605 11.5825 25.7548C12.1332 24.1685 11.9272 22.6932 11.4201 21.2175C9.98086 17.0294 8.58362 12.8271 7.18548 8.62215C6.87817 7.69789 6.57082 6.77351 6.26296 5.84911C6.12515 5.4353 5.92012 5.09396 5.56149 4.87259C5.22517 4.66498 4.82156 4.60783 4.40016 4.5877C3.53728 4.54649 2.67387 4.55502 1.82057 4.58564C1.53909 4.59573 1.32327 4.54782 1.15077 4.45959C0.979333 4.37191 0.820183 4.22888 0.674958 4.00104C0.650147 3.96211 0.622806 3.92746 0.594584 3.89665Z" stroke="white"/>
<path d="M12.4336 34.0337L12.2617 33.5641L12.4336 34.0337C13.6252 33.5974 15.0273 34.0021 15.7785 35.1069C16.5832 36.2905 16.4292 37.8857 15.4067 38.825C15.2562 38.9634 15.0714 39.0829 14.8478 39.2147C14.8028 39.2412 14.7552 39.2688 14.706 39.2973C14.5669 39.3779 14.4144 39.4662 14.2675 39.5617C13.7315 39.5764 13.1757 39.5779 12.5891 39.5781C12.5711 39.5591 12.5492 39.5373 12.5249 39.5161C12.4771 39.4746 12.4012 39.4184 12.2962 39.3834C11.8585 39.2377 11.4172 38.8716 11.0805 38.3767C10.7447 37.8831 10.5507 37.3163 10.5509 36.8265C10.5515 35.5535 11.2573 34.4643 12.4336 34.0337Z" stroke="#FFFDFD"/>
<path d="M32.2962 39.3834L32.2962 39.3834C31.8585 39.2377 31.4172 38.8716 31.0805 38.3767C30.7447 37.8831 30.5507 37.3163 30.5509 36.8265C30.5515 35.5535 31.2573 34.4643 32.4336 34.0337C33.6252 33.5974 35.0273 34.0021 35.7785 35.1069C36.5832 36.2905 36.4292 37.8857 35.4067 38.825L35.7259 39.1725L35.4067 38.825C35.2562 38.9634 35.0714 39.0828 34.8478 39.2147C34.8028 39.2412 34.7552 39.2687 34.706 39.2973C34.5669 39.3778 34.4144 39.4662 34.2675 39.5617C33.7315 39.5764 33.1757 39.5779 32.5891 39.5781C32.5711 39.5591 32.5492 39.5373 32.5249 39.5161C32.4771 39.4746 32.4012 39.4184 32.2962 39.3834Z" stroke="white"/>
</g>
<defs>
<clipPath id="clip0_30_225">
<rect width="40" height="40" fill="white"/>
</clipPath>
</defs>
</svg>
