<svg width="37" height="39" viewBox="0 0 37 39" fill="none" xmlns="http://www.w3.org/2000/svg">
<path d="M20.3168 0.599213L20.3167 0.599197C19.4054 0.462067 17.5075 0.469336 16.6107 0.606594C12.2977 1.27799 8.71631 4.64905 8.01604 8.60868C7.86947 9.48322 7.86949 11.0697 8.01611 11.944C8.71605 15.9389 12.3108 19.2955 16.6817 19.9529C17.6373 20.0906 19.3627 20.0906 20.3182 19.9529C24.689 19.2955 28.2838 15.939 28.9838 11.9442C29.1305 11.0697 29.1305 9.48265 28.9838 8.60817C28.2837 4.61295 24.6882 1.2561 20.3168 0.599213Z" stroke="white"/>
<path d="M13.7674 23.4636L13.7674 23.4635C14.3004 23.3801 15.2976 23.3628 18.7852 23.3781M13.7674 23.4636L18.7878 22.8781M13.7674 23.4636L13.7625 23.4643C9.16693 24.1382 5.24136 26.5637 2.78346 30.2344L2.78252 30.2358C1.35432 32.3533 0.5 35.0759 0.5 37.4229C0.5 37.903 0.525382 38.1 0.566104 38.2073C0.585993 38.2597 0.610954 38.3072 0.774956 38.4109M13.7674 23.4636L2.368 29.9562C0.888 32.1505 0 34.9695 0 37.4229C0 38.36 0.0822222 38.5733 0.542667 38.8552M18.7852 23.3781C18.7853 23.3781 18.7855 23.3781 18.7856 23.3781L18.7878 22.8781M18.7852 23.3781C18.7851 23.3781 18.7851 23.3781 18.785 23.3781L18.7878 22.8781M18.7852 23.3781C22.9071 23.4011 23.1569 23.4109 23.8615 23.5513M18.7878 22.8781C22.8824 22.901 23.1949 22.9086 23.9596 23.061M23.8615 23.5513L23.9596 23.061M23.8615 23.5513C27.0216 24.183 29.4711 25.3728 31.6767 27.3355L31.6772 27.3359C34.6912 30.0106 36.5 33.8261 36.5 37.4076C36.5 37.8957 36.4746 38.0971 36.4334 38.2068C36.4132 38.2603 36.3885 38.3075 36.225 38.4109M23.8615 23.5513C23.8616 23.5513 23.8617 23.5513 23.8618 23.5513L23.9596 23.061M23.9596 23.061L36.225 38.4109M36.225 38.4109C36.2375 38.4088 36.2426 38.4076 36.2426 38.4077C36.2426 38.4078 36.2231 38.4128 36.2014 38.4257L36.4573 38.8552M36.225 38.4109L32.0091 26.9619C35.1171 29.72 37 33.6667 37 37.4076C37 38.36 36.9178 38.5733 36.4573 38.8552M36.225 38.4109C36.2159 38.4167 36.2063 38.4227 36.1963 38.4288L36.4573 38.8552M36.225 38.4109C36.1932 38.4162 36.1133 38.427 35.947 38.4365C35.6119 38.4557 35.0007 38.4695 33.8447 38.4791C31.539 38.4981 27.11 38.5 18.5 38.5C9.89002 38.5 5.46104 38.4981 3.15529 38.4791C1.99934 38.4695 1.38805 38.4557 1.05303 38.4365C0.886711 38.427 0.806781 38.4162 0.774956 38.4109M36.4573 38.8552C36.2271 38.9924 35.7173 39 18.5 39C1.28267 39 0.772889 38.9924 0.542667 38.8552M0.542667 38.8552L0.803743 38.4288C0.793699 38.4227 0.784111 38.4167 0.774956 38.4109M0.542667 38.8552L0.798554 38.4257C0.776862 38.4128 0.757376 38.4078 0.757402 38.4077C0.757415 38.4076 0.762502 38.4088 0.774956 38.4109" stroke="white"/>
</svg>
